PathFileType   4   (X/Y/Z)
DataRate	CameraRate	NumFrames	NumMarkers	Units	OrigDataRate	OrigDataStartFrame	OrigNumFrames
120.0	120.0	5	37	mm	120.0	60	118
Frame#	Time	midhip	hip_r	hip_l	knee_r	knee_l	ankle_r	ankle_l	midasis	asis_r	asis_l	psis_r	psis_l	epicondLat_r	epicondLat_l	epicondMed_r	epicondMed_l	malleolusLat_r	malleolusLat_l	malleolusMedv_r	malleolusMedv_l	neck	subclavicle_r	subclavicle_l	sternalnotch	xyphoidprocess	thighwand_r	thighwand_l	upperleg1_r	upperleg1_l	upperleg2_r	upperleg2_l	shankwand_r	shankwand_l	lowerleg1_r	lowerleg1_l	toe_r	toe_l
 	 	X1	Y1	Z1	X2	Y2	Z2	X3	Y3	Z3	X4	Y4	Z4	X5	Y5	Z5	X6	Y6	Z6	X7	Y7	Z7	X8	Y8	Z8	X9	Y9	Z9	X10	Y10	Z10	X11	Y11	Z11	X12	Y12	Z12	X13	Y13	Z13	X14	Y14	Z14	X15	Y15	Z15	X16	Y16	Z16	X17	Y17	Z17	X18	Y18	Z18	X19	Y19	Z19	X20	Y20	Z20	X21	Y21	Z21	X22	Y22	Z22	X23	Y23	Z23	X24	Y24	Z24	X25	Y25	Z25	X26	Y26	Z26	X27	Y27	Z27	X28	Y28	Z28	X29	Y29	Z29	X30	Y30	Z30	X31	Y31	Z31	X32	Y32	Z32	X33	Y33	Z33	X34	Y34	Z34	X35	Y35	Z35	X36	Y36	Z36	X37	Y37	Z37

	60	0.61667	1691.264	866.639	-215.716	1676.641	838.790	-149.536	1692.601	849.362	-298.742	1581.581	444.151	-137.917	1857.973	459.647	-277.107	1334.386	122.599	-151.051	1942.357	71.815	-261.150	1770.980	929.657	-208.838	1758.092	921.121	-88.357	1783.868	938.194	-329.318	1583.004	971.641	-194.220	1596.623	971.709	-278.540	1590.238	443.769	-80.062	1867.269	460.413	-334.352	1578.905	445.650	-191.261	1844.747	457.981	-217.123	1322.941	129.859	-113.417	1926.774	66.967	-296.572	1346.448	131.103	-179.340	1944.658	87.109	-235.729	1587.231	1397.823	-195.452	1716.279	1319.870	-148.675	1722.040	1326.282	-255.258	1701.603	1331.026	-199.714	1784.152	1167.884	-216.650	1661.406	538.501	-4.913	1958.078	610.523	-273.560	1682.696	601.634	-69.546	1877.767	627.555	-325.299	1668.010	516.037	-94.180	1892.649	541.228	-312.796	1417.529	225.449	-22.711	1924.259	205.833	-384.441	1387.830	204.235	-97.161	1915.219	167.825	-314.676	1421.225	40.813	-137.525	2064.301	48.649	-267.909
	61	0.62500	1703.598	868.716	-217.789	1688.639	839.775	-151.374	1704.101	851.429	-300.552	1596.297	443.844	-136.900	1866.879	460.968	-277.353	1342.323	128.248	-149.784	1943.600	71.468	-260.582	1782.918	930.931	-210.327	1770.452	921.536	-90.052	1795.384	940.327	-330.603	1595.074	973.135	-194.516	1608.071	973.766	-278.933	1604.874	443.959	-79.032	1876.880	461.744	-334.478	1595.946	442.753	-189.543	1852.768	459.691	-218.584	1330.398	136.321	-112.466	1928.896	67.028	-296.430	1354.517	136.378	-177.848	1946.351	86.942	-235.170	1598.170	1399.064	-196.776	1726.910	1321.558	-149.917	1732.813	1328.006	-256.503	1712.360	1332.579	-201.135	1795.155	1169.711	-217.836	1675.231	539.111	-4.113	1968.021	611.239	-272.386	1696.952	601.534	-69.554	1889.213	629.746	-324.959	1683.298	515.894	-92.604	1903.059	543.107	-312.835	1425.848	231.385	-21.614	1931.406	205.978	-383.939	1397.008	210.006	-96.126	1920.402	167.441	-314.053	1423.249	40.716	-137.460	2066.139	46.669	-266.957
	62	0.63333	1715.578	870.740	-219.561	1700.624	840.980	-153.328	1715.582	853.759	-302.465	1612.118	443.491	-135.817	1875.340	462.239	-277.629	1351.661	133.979	-148.548	1944.413	71.218	-260.004	1794.791	932.493	-211.908	1782.752	922.208	-91.885	1806.828	942.777	-331.931	1607.043	974.773	-194.738	1619.492	975.990	-279.294	1620.576	444.157	-77.936	1886.044	462.991	-334.627	1612.748	440.512	-188.019	1860.371	462.859	-217.866	1339.229	142.921	-111.596	1930.513	67.131	-296.213	1364.571	141.821	-176.408	1947.607	86.951	-234.676	1608.791	1400.253	-198.615	1737.204	1323.077	-151.682	1743.233	1329.892	-258.123	1723.091	1334.300	-202.537	1805.852	1171.598	-219.965	1689.787	539.800	-3.227	1977.630	611.791	-271.275	1711.735	601.760	-69.250	1900.447	631.796	-324.632	1698.791	515.280	-91.415	1913.073	545.175	-311.814	1435.347	237.542	-20.583	1937.795	206.059	-383.408	1407.149	215.993	-95.303	1923.886	167.173	-313.577	1425.587	40.637	-137.472	2067.528	45.249	-266.273
	63	0.64167	1724.666	870.195	-221.370	1712.564	842.360	-155.341	1727.017	856.270	-304.427	1628.993	443.072	-134.711	1883.309	463.370	-277.952	1362.491	139.689	-147.334	1944.941	71.029	-259.426	1806.567	934.279	-213.545	1794.960	923.108	-93.808	1818.175	945.451	-333.282	1618.862	976.497	-194.907	1630.879	978.309	-279.618	1637.283	444.328	-76.815	1894.682	464.062	-334.822	1629.858	438.392	-185.983	1866.751	465.853	-217.086	1349.550	149.537	-110.789	1931.714	67.228	-295.917	1376.317	147.096	-175.047	1947.989	87.179	-234.184	1619.193	1401.553	-200.395	1747.941	1324.796	-153.627	1753.791	1331.757	-259.909	1733.777	1336.084	-203.939	1817.056	1173.656	-222.114	1705.001	540.522	-2.288	1986.879	612.085	-270.309	1727.365	602.071	-68.657	1910.850	633.168	-324.709	1714.845	514.470	-89.914	1922.000	546.616	-310.977	1446.121	243.754	-19.599	1943.320	206.038	-382.893	1418.895	221.777	-94.353	1925.997	167.781	-313.532	1428.264	40.666	-137.580	2068.556	44.241	-265.772
	64	0.65000	1735.795	871.787	-222.698	1724.422	843.862	-157.337	1738.382	858.858	-306.364	1646.828	442.590	-133.624	1890.751	464.302	-278.339	1374.840	145.294	-146.122	1945.321	70.871	-258.866	1818.226	936.212	-215.179	1807.039	924.194	-95.749	1829.414	948.230	-334.609	1630.500	978.250	-195.065	1642.210	980.650	-279.909	1654.890	444.453	-75.712	1902.718	464.892	-335.088	1653.017	434.744	-184.743	1873.075	467.212	-218.088	1361.423	156.051	-110.007	1932.599	67.290	-295.558	1389.180	151.908	-173.700	1948.160	87.466	-233.583	1630.004	1403.103	-201.770	1758.982	1327.029	-155.151	1764.394	1333.444	-261.047	1744.408	1337.882	-205.353	1828.249	1175.724	-222.916	1720.767	541.240	-1.333	1995.743	612.058	-269.581	1743.588	602.328	-68.028	1920.859	634.136	-324.712	1733.769	514.854	-87.867	1930.660	547.447	-311.040	1458.236	249.828	-18.634	1947.963	205.889	-382.456	1432.540	227.443	-93.180	1928.274	168.621	-313.896	1431.320	40.920	-137.794	2069.332	43.507	-265.378
